<svg width="56" height="55" xmlns="http://www.w3.org/2000/svg" xmlns:xlink="http://www.w3.org/1999/xlink" xml:space="preserve" overflow="hidden"><defs><clipPath id="clip0"><rect x="2078" y="1150" width="56" height="55"/></clipPath></defs><g clip-path="url(#clip0)" transform="translate(-2078 -1150)"><g><g><g><path d="M2114.09 1168.91 2105.5 1150 2096.91 1168.91 2078 1177.5 2096.91 1186.09 2105.5 1205 2114.09 1186.09 2133 1177.5 2114.09 1168.91ZM2108.9 1180.9 2105.5 1188.4 2102.1 1180.9 2094.6 1177.5 2102.1 1174.1 2105.5 1166.6 2108.9 1174.1 2116.4 1177.5 2108.9 1180.9Z" fill="#464646"/></g></g></g><g><g><g><path d="M13.125 6.87498 9.99997 0 6.87498 6.87498 0 9.99997 6.87498 13.125 9.99997 19.9999 13.125 13.125 19.9999 9.99997 13.125 6.87498ZM11.2375 11.2375 9.99997 13.9625 8.76247 11.2375 6.03748 9.99997 8.76247 8.76247 9.99997 6.03748 11.2375 8.76247 13.9625 9.99997 11.2375 11.2375Z" fill="#464646" transform="matrix(1 0 0 1.00002 2113 1151)"/></g></g></g><g><g><g><path d="M2127.12 1191.87 2124 1185 2120.88 1191.87 2114 1195 2120.88 1198.12 2124 1205 2127.12 1198.12 2134 1195 2127.12 1191.87ZM2125.24 1196.24 2124 1198.96 2122.76 1196.24 2120.04 1195 2122.76 1193.76 2124 1191.04 2125.24 1193.76 2127.96 1195 2125.24 1196.24Z" fill="#464646"/></g></g></g></g></svg>